<svg xmlns="http://www.w3.org/2000/svg" viewbox="-1000 3083 32 26.285" class="icon icon_social_twitter"><title>Twitter Logo</title><defs><style>.icon_social_twitter-cls-1{fill:#0C97B9}</style></defs><path id="Path_1137" data-name="Path 1137" class="icon_social_twitter-cls-1" d="M11.136 28.841A20.855 20.855 0 0 1 .855 25.924a.7.7 0 0 1 .422-1.3 12.277 12.277 0 0 0 7.339-1.511 7.591 7.591 0 0 1-5.27-4.31.7.7 0 0 1 .838-.952 5.142 5.142 0 0 0 .9.192 7.2 7.2 0 0 1-3.708-6.179.695.695 0 0 1 1.124-.538 3.66 3.66 0 0 0 .707.452A7.46 7.46 0 0 1 2 9.251a6.744 6.744 0 0 1 .775-5.226.7.7 0 0 1 .551-.339.712.712 0 0 1 .591.26 16.471 16.471 0 0 0 11.539 6.214c-.109-1.852.448-4.886 3.005-6.379 3.146-1.837 6.172-1.6 8.772.678A14.635 14.635 0 0 0 30.58 3.15a.7.7 0 0 1 1.071.749A6.254 6.254 0 0 1 30.6 5.932a6.045 6.045 0 0 0 .889-.321.7.7 0 0 1 .907.989 13 13 0 0 1-3.025 3.153C29.845 15.631 26.41 22.2 20.9 25.86a17.678 17.678 0 0 1-9.764 2.981zM4.187 26a16.517 16.517 0 0 0 15.939-1.3c5.226-3.47 8.441-9.722 7.819-15.206a.693.693 0 0 1 .309-.659 11.254 11.254 0 0 0 1.522-1.259 7.952 7.952 0 0 1-1.515.206A.7.7 0 0 1 28 6.439a4.072 4.072 0 0 0 1.384-1.213 11.577 11.577 0 0 1-2.265.665.691.691 0 0 1-.575-.182c-2.2-2.062-4.678-2.307-7.382-.729-2.426 1.42-2.48 4.726-2.224 5.77a.694.694 0 0 1-.141.609.709.709 0 0 1-.573.252A17.85 17.85 0 0 1 3.533 5.64a5.3 5.3 0 0 0-.184 3.26 5.553 5.553 0 0 0 2.221 3.243.7.7 0 0 1-.213 1.283 4.321 4.321 0 0 1-2.438-.257 6.439 6.439 0 0 0 4.59 4.362.7.7 0 0 1 .373 1.223 3.648 3.648 0 0 1-2.543.71 6.383 6.383 0 0 0 5.121 2.486.7.7 0 0 1 .449 1.213A12.364 12.364 0 0 1 4.187 26z" transform="translate(-1000.5 3080.443)"/></svg>