<svg xmlns="http://www.w3.org/2000/svg" viewbox="-896 3080 32 32" class="icon icon_social_insta"><title>Instagram Logo</title><defs><style>.icon_social_insta-cls-1{fill:#0C97B9}</style></defs><g id="Group_143" data-name="Group 143" transform="translate(-1102 -368)"><path id="Path_1128" data-name="Path 1128" class="icon_social_insta-cls-1" d="M27.333 32H4.667A4.672 4.672 0 0 1 0 27.335V4.669A4.672 4.672 0 0 1 4.667 0h22.666A4.672 4.672 0 0 1 32 4.669v22.666A4.672 4.672 0 0 1 27.333 32zM4.667 1.335a3.337 3.337 0 0 0-3.334 3.334v22.666a3.337 3.337 0 0 0 3.333 3.333h22.667a3.337 3.337 0 0 0 3.333-3.333V4.669a3.337 3.337 0 0 0-3.333-3.333H4.667z" transform="translate(206 3447.998)"/><path id="Path_1129" data-name="Path 1129" class="icon_social_insta-cls-1" d="M11.333 8.335H.667A.667.667 0 1 1 .667 7h10.666a.667.667 0 0 1 0 1.333z" transform="translate(206 3450.331)"/><path id="Path_1130" data-name="Path 1130" class="icon_social_insta-cls-1" d="M26.333 8.335H15.667a.667.667 0 1 1 0-1.333h10.666a.667.667 0 0 1 0 1.333z" transform="translate(211 3450.331)"/><path id="Path_1131" data-name="Path 1131" class="icon_social_insta-cls-1" d="M21.667 7.335h-4A.667.667 0 0 1 17 6.669v-4A.667.667 0 0 1 17.667 2h4a.667.667 0 0 1 .667.667v4a.667.667 0 0 1-.667.668zM18.333 6H21V3.335h-2.667z" transform="translate(211.667 3448.665)"/><path id="Path_1132" data-name="Path 1132" class="icon_social_insta-cls-1" d="M2.667 6.5A.667.667 0 0 1 2 5.835V1.169a.667.667 0 1 1 1.333 0v4.666a.667.667 0 0 1-.666.665z" transform="translate(206.667 3448.165)"/><path id="Path_1133" data-name="Path 1133" class="icon_social_insta-cls-1" d="M4.667 6.669A.667.667 0 0 1 4 6V.669a.667.667 0 1 1 1.333 0V6a.667.667 0 0 1-.666.669z" transform="translate(207.333 3447.998)"/><path id="Path_1134" data-name="Path 1134" class="icon_social_insta-cls-1" d="M6.667 6.669A.667.667 0 0 1 6 6V.669a.667.667 0 0 1 1.333 0V6a.667.667 0 0 1-.666.669z" transform="translate(208 3447.998)"/><path id="Path_1135" data-name="Path 1135" class="icon_social_insta-cls-1" d="M14 22a8 8 0 1 1 8-8 8.008 8.008 0 0 1-8 8zm0-14.665A6.667 6.667 0 1 0 20.667 14 6.674 6.674 0 0 0 14 7.335z" transform="translate(208 3449.998)"/><path id="Path_1136" data-name="Path 1136" class="icon_social_insta-cls-1" d="M13 17a4 4 0 1 1 4-4 4 4 0 0 1-4 4zm0-6.667A2.667 2.667 0 1 0 15.667 13 2.669 2.669 0 0 0 13 10.335z" transform="translate(209 3450.998)"/></g></svg>