<svg xmlns="http://www.w3.org/2000/svg" viewbox="-1052 3080 32 32" class="icon icon_social_facebook"><title>Facebook Logo</title><defs><style>.icon_social_facebook-cls-1{fill:#0C97B9}</style></defs><path id="Path_1127" data-name="Path 1127" class="icon_social_facebook-cls-1" d="M28.667 32H22a.667.667 0 0 1-.667-.667v-12A.667.667 0 0 1 22 18.67h3.52l.889-2.67H22a.667.667 0 0 1-.667-.667v-4A3.338 3.338 0 0 1 24.667 8h2V5.336h-2a6.007 6.007 0 0 0-6 6v4A.667.667 0 0 1 18 16h-3.333v2.67H18a.667.667 0 0 1 .667.667v12A.667.667 0 0 1 18 32H3.333A3.338 3.338 0 0 1 0 28.67V3.336A3.338 3.338 0 0 1 3.333 0h25.334A3.338 3.338 0 0 1 32 3.336V28.67A3.338 3.338 0 0 1 28.667 32zm-6-1.333h6a2 2 0 0 0 2-2V3.336a2 2 0 0 0-2-2H3.333a2 2 0 0 0-2 2V28.67a2 2 0 0 0 2 2h14V20H14a.667.667 0 0 1-.667-.667v-4A.667.667 0 0 1 14 14.67h3.333v-3.334A7.341 7.341 0 0 1 24.667 4h2.667a.667.667 0 0 1 .666.67v4a.667.667 0 0 1-.667.667h-2.666a2 2 0 0 0-2 2v3.333h4.667a.666.666 0 0 1 .632.879l-1.333 4A.667.667 0 0 1 26 20h-3.333z" transform="translate(-1052 3079.997)"/></svg>