<svg xmlns="http://www.w3.org/2000/svg" viewbox="-948 3084 32 23.596" class="icon icon_social_youtube"><title>YouTube Logo</title><defs><style>.icon_social_youtube-cls-1{fill:#0C97B9}</style></defs><g id="Group_144" data-name="Group 144" transform="translate(-1102 -368)"><path id="Path_1138" data-name="Path 1138" class="icon_social_youtube-cls-1" d="M16 26.75c-1.563 0-3.127-.067-4.679-.2l-7.059-.613A4.64 4.64 0 0 1 0 21.285V8.619A4.64 4.64 0 0 1 4.263 3.97l7.059-.613a54.018 54.018 0 0 1 9.357 0l7.059.613A4.642 4.642 0 0 1 32 8.619v12.666a4.64 4.64 0 0 1-4.263 4.649l-7.059.613A53.608 53.608 0 0 1 16 26.75zm0-22.263a51.4 51.4 0 0 0-4.563.2L4.379 5.3a3.317 3.317 0 0 0-3.046 3.319v12.666a3.316 3.316 0 0 0 3.045 3.321l7.059.613a52.936 52.936 0 0 0 9.125 0l7.059-.613a3.315 3.315 0 0 0 3.045-3.321V8.619A3.316 3.316 0 0 0 27.621 5.3l-7.059-.613a52.13 52.13 0 0 0-4.562-.2z" transform="translate(154 3448.846)"/><path id="Path_1139" data-name="Path 1139" class="icon_social_youtube-cls-1" d="M9.667 20.336a.679.679 0 0 1-.32-.081A.668.668 0 0 1 9 19.67v-12a.665.665 0 0 1 1.027-.56l9.333 6a.666.666 0 0 1 0 1.12l-9.333 6a.663.663 0 0 1-.36.106zm.667-11.445v9.557l7.433-4.779z" transform="translate(157 3450.129)"/></g></svg>