<?xml version="1.0" encoding="UTF-8" standalone="no"?>
<!-- Created with Inkscape (http://www.inkscape.org/) -->

<svg
   xmlns:dc="http://purl.org/dc/elements/1.1/"
   xmlns:cc="http://creativecommons.org/ns#"
   xmlns:rdf="http://www.w3.org/1999/02/22-rdf-syntax-ns#"
   xmlns:svg="http://www.w3.org/2000/svg"
   xmlns="http://www.w3.org/2000/svg"
   xmlns:sodipodi="http://sodipodi.sourceforge.net/DTD/sodipodi-0.dtd"
   xmlns:inkscape="http://www.inkscape.org/namespaces/inkscape"
   width="161.89551mm"
   height="108.08142mm"
   viewBox="0 0 161.89551 108.08142"
   version="1.1"
   id="svg8"
   inkscape:version="0.92.4 (5da689c313, 2019-01-14)"
   sodipodi:docname="main-logo.svg">
  <defs
     id="defs2">
    <style
       id="style4747">.cls-1{fill:#165767;}</style>
  </defs>
  <sodipodi:namedview
     id="base"
     pagecolor="#ffffff"
     bordercolor="#666666"
     borderopacity="1.0"
     inkscape:pageopacity="0.0"
     inkscape:pageshadow="2"
     inkscape:zoom="0.35"
     inkscape:cx="-115.48431"
     inkscape:cy="-24.323073"
     inkscape:document-units="mm"
     inkscape:current-layer="g4825"
     showgrid="false"
     inkscape:window-width="1920"
     inkscape:window-height="1001"
     inkscape:window-x="-9"
     inkscape:window-y="-9"
     inkscape:window-maximized="1" />
  <metadata
     id="metadata5">
    <rdf:RDF>
      <cc:Work
         rdf:about="">
        <dc:format>image/svg+xml</dc:format>
        <dc:type
           rdf:resource="http://purl.org/dc/dcmitype/StillImage" />
        <dc:title></dc:title>
      </cc:Work>
    </rdf:RDF>
  </metadata>
  <g
     inkscape:label="Layer 1"
     inkscape:groupmode="layer"
     id="layer1"
     transform="translate(68.852516,-34.316431)">
    <g
       id="g4825"
       transform="matrix(0.26458333,0,0,0.26458333,-69.672721,34.315835)">
      <path
         id="path4753"
         d="m 72.21,220.74 c 1.5,-0.25 2.43,0.31 2.68,1.62 l 13.35,77 c 0.22,1.3 -0.41,2.14 -1.84,2.39 -3.36,0.59 -6.75,1.19 -10.11,1.81 A 1.93,1.93 0 0 1 73.74,302 q -4.2,-22.74 -8.44,-45.5 c -0.25,0.07 -0.53,0.1 -0.77,0.16 q -1.37,23.89 -2.28,47.77 a 2.26,2.26 0 0 1 -2,2.27 c -1.77,0.34 -3.55,0.68 -5.32,1.06 a 2.25,2.25 0 0 1 -2.74,-1.34 q -10,-21.7 -20.35,-43.26 a 5.4,5.4 0 0 1 -0.78,0.16 q 4.82,22.64 9.59,45.28 a 1.92,1.92 0 0 1 -1.77,2.4 c -3.33,0.71 -6.63,1.43 -10,2.17 -1.41,0.31 -2.34,-0.21 -2.62,-1.52 q -8.53,-38.15 -17,-76.27 c -0.28,-1.31 0.34,-2.18 1.83,-2.52 q 7.57,-1.68 15.19,-3.27 a 2.45,2.45 0 0 1 2.93,1.28 q 11.61,23.77 22.79,47.66 1.17,-26.32 2.83,-52.72 a 2.42,2.42 0 0 1 2.21,-2.3 c 4.96,-0.96 10.1,-1.87 15.17,-2.77 z"
         class="cls-1"
         inkscape:connector-curvature="0"
         style="fill:#ffffff" />
      <path
         id="path4755"
         d="m 144.84,279.52 c 2.87,-0.37 4.27,-1.9 3.92,-4.63 q -2.94,-23.58 -5.85,-47.15 c -0.34,-2.64 -2.11,-3.89 -5.1,-3.51 -2.24,0.28 -4.45,0.56 -6.69,0.87 -3,0.4 -4.42,2.05 -4.05,4.7 q 3.23,23.52 6.41,47.08 c 0.38,2.74 2.12,3.86 5,3.48 z m -33.39,-50.1 c -1.43,-9.55 3.64,-15.53 14.57,-17 4.32,-0.59 8.68,-1.15 13,-1.68 11,-1.37 17.37,3.11 18.43,12.73 q 2.94,26.13 5.91,52.31 c 1.09,9.61 -3.83,15.31 -14.1,16.58 -4.08,0.5 -8.15,1.06 -12.26,1.59 -10.27,1.4 -16.46,-2.86 -17.89,-12.42 q -3.82,-26.06 -7.66,-52.11 z"
         class="cls-1"
         inkscape:connector-curvature="0"
         style="fill:#ffffff" />
      <path
         id="path4757"
         d="m 235.12,202 a 2.26,2.26 0 0 1 2.46,1.93 q 1.77,32.67 3.51,65.32 c 0.5,9.64 -4.73,15.06 -15,15.74 -4.11,0.28 -8.21,0.56 -12.29,0.87 -10.3,0.78 -16.24,-3.82 -17.11,-13.47 L 191,207.27 a 2.2,2.2 0 0 1 2.15,-2.24 c 3.73,-0.31 7.47,-0.63 11.2,-0.91 a 2.23,2.23 0 0 1 2.45,1.88 q 2.38,31.19 4.73,62.36 c 0.22,2.77 1.87,4 4.76,3.77 l 5.76,-0.41 c 2.89,-0.18 4.35,-1.62 4.17,-4.38 q -2,-31.18 -4.05,-62.4 a 2.25,2.25 0 0 1 2.21,-2.21 c 3.55,-0.29 7.16,-0.5 10.74,-0.73 z"
         class="cls-1"
         inkscape:connector-curvature="0"
         style="fill:#ffffff" />
      <path
         id="path4759"
         d="m 320.6,199.92 c 1.18,0 1.87,0.62 1.87,1.65 q -0.29,39.5 -0.59,79 a 1.56,1.56 0 0 1 -1.78,1.62 c -3.64,0 -7.25,0 -10.89,0 a 1.9,1.9 0 0 1 -2,-1.34 q -8.49,-21.94 -17.58,-43.75 h -0.56 q 0.38,21.8 0.74,43.59 c 0,1 -0.52,1.65 -1.74,1.68 -3.83,0.07 -7.62,0.16 -11.45,0.25 a 1.56,1.56 0 0 1 -1.8,-1.58 q -1.12,-39.5 -2.24,-79 c 0,-1 0.65,-1.68 1.83,-1.71 l 11.58,-0.28 a 1.94,1.94 0 0 1 2.11,1.3 q 9.24,21.71 18,43.51 h 0.68 l -0.18,-43.41 c 0,-1 0.59,-1.65 1.86,-1.65 4.02,0.09 8.06,0.09 12.14,0.12 z"
         class="cls-1"
         inkscape:connector-curvature="0"
         style="fill:#ffffff" />
      <path
         id="path4761"
         d="m 400.11,202.69 c 1.28,0.1 1.84,0.75 1.77,1.78 q -0.31,5.13 -0.65,10.27 c -0.06,1 -0.68,1.61 -2,1.52 -4.48,-0.28 -9,-0.56 -13.41,-0.78 q -1.78,33.47 -3.58,67 c -0.06,1.12 -0.65,1.62 -1.84,1.55 L 369,283.44 c -1.09,-0.06 -1.74,-0.59 -1.68,-1.71 q 1.4,-33.51 2.83,-67 -6.72,-0.28 -13.44,-0.5 a 1.64,1.64 0 0 1 -1.81,-1.71 c 0.1,-3.43 0.22,-6.85 0.32,-10.27 0,-1 0.74,-1.62 1.92,-1.59 q 21.43,0.67 42.97,2.03 z"
         class="cls-1"
         inkscape:connector-curvature="0"
         style="fill:#ffffff" />
      <path
         id="path4763"
         d="m 450.68,224.91 c -3.67,11.67 -7.25,23.31 -10.8,35 4.79,0.47 9.55,0.93 14.35,1.46 -1.13,-12.16 -2.31,-24.29 -3.55,-36.46 z m 8.06,65.51 a 1.67,1.67 0 0 1 -1.59,-1.62 c -0.47,-5.11 -1,-10.18 -1.43,-15.28 -6.6,-0.72 -13.16,-1.4 -19.76,-2 -1.46,4.88 -2.93,9.77 -4.36,14.68 a 1.67,1.67 0 0 1 -1.9,1.28 c -3.92,-0.34 -7.84,-0.68 -11.73,-1 -1.21,-0.09 -1.71,-0.74 -1.27,-1.86 q 12.27,-38.7 25.67,-77.15 a 1.79,1.79 0 0 1 2.12,-1.24 c 5.41,0.53 10.79,1.06 16.21,1.65 a 1.77,1.77 0 0 1 1.83,1.65 q 5.37,40.38 9.65,80.72 c 0.09,1.15 -0.43,1.71 -1.74,1.56 -3.95,-0.49 -7.81,-0.93 -11.7,-1.39 z"
         class="cls-1"
         inkscape:connector-curvature="0"
         style="fill:#ffffff" />
      <path
         id="path4765"
         d="m 529.53,217 a 1.63,1.63 0 0 1 1.59,1.93 q -6.25,39 -12.48,78 a 1.55,1.55 0 0 1 -2,1.34 q -5.65,-0.9 -11.36,-1.75 c -1.21,-0.18 -1.65,-0.87 -1.49,-1.89 q 5.79,-39.08 11.57,-78.14 c 0.16,-1 0.81,-1.56 2.09,-1.34 z"
         class="cls-1"
         inkscape:connector-curvature="0"
         style="fill:#ffffff" />
      <path
         id="path4767"
         d="m 613.46,233 a 1.65,1.65 0 0 1 1.49,2 q -8.62,38.56 -17.24,77.08 a 1.56,1.56 0 0 1 -2.08,1.22 L 584.92,311 a 2,2 0 0 1 -1.68,-1.71 q -3.74,-23.25 -8.06,-46.49 a 4,4 0 0 1 -0.56,-0.12 q -4.25,21.38 -8.46,42.78 a 1.54,1.54 0 0 1 -2,1.28 c -3.77,-0.75 -7.53,-1.46 -11.3,-2.18 a 1.57,1.57 0 0 1 -1.43,-1.93 q 7.23,-38.83 14.44,-77.67 a 1.63,1.63 0 0 1 2.14,-1.28 c 3.8,0.72 7.63,1.44 11.42,2.18 a 2,2 0 0 1 1.81,1.71 q 4.53,23.16 8.46,46.34 c 0.22,0.06 0.44,0.09 0.66,0.15 q 4.49,-21.22 9,-42.47 c 0.22,-1 0.9,-1.5 2.18,-1.22 3.95,0.86 7.94,1.7 11.92,2.63 z"
         class="cls-1"
         inkscape:connector-curvature="0"
         style="fill:#ffffff" />
      <path
         id="path4769"
         d="m 74.7,183.15 q 0,7.75 7.75,7.75 10.41,0 25.14,-15.06 13.3,-13.46 20.32,-27.39 c 4.67,-9.3 7,-16.4 7,-21.25 a 11.66,11.66 0 0 0 -0.25,-2.3 c -1.71,0 -3.43,-0.91 -5.2,-2.68 v 0.12 a 3.81,3.81 0 0 1 -1.74,-2.83 2.86,2.86 0 0 1 1.15,-2.36 4.68,4.68 0 0 1 3,-0.94 2.7,2.7 0 0 1 2.61,1.47 11.34,11.34 0 0 0 1.9,2.61 c 0.78,0.78 1.12,1.31 1,1.62 a 2.44,2.44 0 0 0 2.14,1.06 5.76,5.76 0 0 0 3.3,-1.4 5.53,5.53 0 0 1 3,-1.4 c 0.75,0 1.09,0.21 1.09,0.68 0,0.84 -0.75,1.65 -2.21,2.43 a 5.11,5.11 0 0 1 -2.77,1.06 h -3.7 a 28.08,28.08 0 0 1 1.4,6.84 q 0,9.28 -8.87,24.09 A 101.61,101.61 0 0 1 108,181.56 q -14,11.82 -25.43,11.83 -11.43,0.01 -11.42,-11.11 0,-8.82 7.41,-25.15 l 8.34,-18.2 -11.36,8.81 c -3.55,2.92 -7.16,6.16 -10.83,9.67 -3.67,3.51 -10,10.77 -19.17,21.73 L 32.1,195.6 c -2.15,2.46 -4.11,3.7 -5.79,3.7 -1.31,0 -2,-0.84 -2,-2.55 a 15.33,15.33 0 0 1 2.09,-6.6 l 22.37,-32.21 q 20.27,-29.77 20.26,-37.77 c 0,-2.93 -2.71,-4.42 -8.12,-4.42 q -9.86,0 -27.45,12 A 68.42,68.42 0 0 0 16.78,144.02 C 12,150.6 9.63,156 9.63,160.28 c 0,4.28 2.86,6.44 8.56,6.44 q 8,0 16.46,-7.41 c 2,-1.71 3.18,-2.55 3.49,-2.55 0.31,0 0.43,0.28 0.34,0.81 q -1.26,4.4 -9.43,8.4 c -5.45,2.68 -10.24,4 -14.41,4 a 12,12 0 0 1 -2.21,-0.13 h -0.06 q -9.28,-2 -9.27,-9.15 0.01,-7.15 8,-17.27 a 85,85 0 0 1 36.38,-26.54 c 7.66,-2.93 13.94,-4.39 18.89,-4.39 q 9.15,0 9.15,6 Q 75.51,131 44,172.85 q -10.56,14 -10.65,14 c 0.22,0 4.27,-4.35 12.11,-13.1 a 275.25,275.25 0 0 1 22.31,-22.37 q 4.06,-3.6 14,-13.2 a 83.51,83.51 0 0 1 11.23,-8.8 8.23,8.23 0 0 1 4.36,-0.94 c 1.89,0 3.17,0.53 3.89,1.62 a 152.06,152.06 0 0 0 -18.58,29.6 c -5.32,10.95 -7.97,18.76 -7.97,23.49 z"
         class="cls-1"
         inkscape:connector-curvature="0"
         style="fill:#ffffff" />
      <path
         id="path4771"
         d="m 161.27,140.11 a 3.23,3.23 0 0 1 1.56,2.62 3.29,3.29 0 0 1 -1.46,2.61 5,5 0 0 1 -3.18,1.09 4.74,4.74 0 0 1 -3.17,-1.28 3.71,3.71 0 0 1 -1.43,-2.89 c 0,-2.15 1.46,-3.24 4.38,-3.24 a 5.28,5.28 0 0 1 3.3,1.09 z M 137,187.54 c -3.95,0 -5.91,-2.55 -5.91,-7.66 q 0,-6.25 6.85,-17.33 6.85,-11.08 11,-11.17 a 5,5 0 0 1 2.62,0.93 c 1,0.62 1.43,1.25 1.43,1.87 -0.38,0.53 -0.84,1.15 -1.4,1.8 l -1.75,2.15 c -0.62,0.78 -1.46,1.87 -2.55,3.3 -1.09,1.43 -2.11,2.8 -3.11,4.11 -5.79,7.5 -8.68,12.63 -8.68,15.46 0,2.83 1,4.23 2.89,4.23 1.62,0 3.83,-0.9 6.6,-2.67 a 58.46,58.46 0 0 0 15.4,-13.2 c 1.4,-1.77 2.34,-2.67 2.83,-2.67 0.49,0 0.75,0.31 0.75,0.93 0,0.62 -0.9,1.87 -2.67,3.71 -1.77,1.84 -3.18,3.32 -4.24,4.38 -1.06,1.06 -1.77,1.81 -2.14,2.15 l -2.15,2 a 25.07,25.07 0 0 1 -2.37,2 c -0.52,0.38 -1.3,1 -2.33,1.75 a 13.87,13.87 0 0 1 -2.68,1.68 l -2.67,1.21 a 13.8,13.8 0 0 1 -5.72,1.04 z"
         class="cls-1"
         inkscape:connector-curvature="0"
         style="fill:#ffffff" />
      <path
         id="path4773"
         d="m 163.54,180.47 c 0,2.31 1.28,3.49 3.83,3.49 2.55,0 5.82,-1.34 9.84,-4.05 a 55.65,55.65 0 0 0 11.7,-11 c 0.93,-1.25 1.65,-1.87 2.21,-1.87 0.56,0 0.81,0.22 0.81,0.68 0,0.46 -1.59,2.46 -4.77,6 q -11.57,12.75 -19.35,12.73 a 11.1,11.1 0 0 1 -6.47,-1.81 6.1,6.1 0 0 1 -2.65,-5.53 24.31,24.31 0 0 1 2,-8.75 153.22,153.22 0 0 1 10.77,-19.82 c 9,-14.69 15.43,-22 19.23,-22 a 3.94,3.94 0 0 1 2.36,0.87 2.88,2.88 0 0 1 1.34,1.9 c -1.77,2.39 -5.19,7 -10.24,13.78 -5.05,6.78 -8.55,11.67 -10.48,14.66 -1.93,2.99 -3.39,5.2 -4.36,6.66 -0.97,1.46 -1.68,2.61 -2.15,3.42 -0.47,0.81 -1,1.87 -1.61,3.18 a 16.86,16.86 0 0 0 -2.01,7.46 z"
         class="cls-1"
         inkscape:connector-curvature="0"
         style="fill:#ffffff" />
      <path
         id="path4775"
         d="m 191.12,180.13 c 0,2.77 1,4.17 2.89,4.17 q 5,0 16.56,-13.66 2.1,-2.43 13.91,-18.17 a 2.92,2.92 0 0 0 -2.77,-1.4 c -4.8,0 -11.08,3.64 -18.89,11 -7.81,7.36 -11.7,13.27 -11.7,18.06 z m 34.16,-29 c 8.66,-14.07 14.66,-21.1 18.08,-21.1 a 7.73,7.73 0 0 1 2.28,0.53 c 1,0.34 1.43,0.87 1.43,1.56 a 2.92,2.92 0 0 1 -0.59,1.49 c -6.2,7.56 -10.77,13.26 -13.79,17 -9.12,11.52 -14.13,19.76 -15.06,24.8 a 16.44,16.44 0 0 0 -0.34,3.24 q 0,5.24 4.29,5.23 c 5.73,0 13.16,-5.29 22.38,-15.87 a 4.52,4.52 0 0 1 2,-1.34 c 0.53,-0.13 0.81,0 0.81,0.4 a 2.56,2.56 0 0 1 -0.69,1.4 q -13.44,16.11 -23.87,18 a 10.33,10.33 0 0 1 -1.62,0.12 6.2,6.2 0 0 1 -5.38,-2.49 9.08,9.08 0 0 1 -1.8,-5.38 24,24 0 0 1 1.27,-7.19 l -9.4,9.4 c -4.26,3.95 -7.59,5.91 -10,5.91 a 9.3,9.3 0 0 1 -6.06,-2 7.26,7.26 0 0 1 -2.9,-6.13 q 0,-8.44 11.83,-20.22 11.83,-11.78 21.66,-11.77 c 2.14,0 3.67,0.59 4.51,1.75 a 8.27,8.27 0 0 1 0.96,2.69 z"
         class="cls-1"
         inkscape:connector-curvature="0"
         style="fill:#ffffff" />
      <path
         id="path4777"
         d="m 522.25,157.38 c -0.78,-0.46 -1.52,-0.93 -2.3,-1.43 -3.58,-3.39 -7.28,-6.69 -11.05,-9.8 a 1.27,1.27 0 0 0 0.25,-2 c -1.84,-1.9 -3.73,-3.7 -5.66,-5.48 -0.78,-1.71 -1.59,-3.42 -2.37,-5.16 -0.19,-0.41 -0.37,-0.84 -0.56,-1.25 11,10.33 22.16,20.73 33.76,30.34 a 73.86,73.86 0 0 1 -12.07,-5.22 z M 472,105 C 463.63,98 455.39,90.53 446.55,84.06 a 3.29,3.29 0 0 0 1.74,-1.74 c 2.86,-3 5.63,-6.1 8.37,-9.22 4.67,7.53 10,14.72 15,22 4.17,6 8.16,12.89 12.76,19 0.28,0.59 0.59,1.18 0.87,1.74 -4.43,-3.7 -9,-7.25 -13.29,-10.84 z M 389.93,63.72 c -3.39,-3 -6.9,-5.88 -10.42,-8.75 q -2.89,-10 -6.07,-20 c -1.06,-5.11 -2.24,-10.18 -3.64,-15.16 3.7,-4.2 7.41,-8.37 11.05,-12.63 a 0.76,0.76 0 0 0 -0.13,0.4 c 1.09,12.48 6.13,24.93 11.08,36.32 3.92,9 8.59,18.73 14.53,27 a 66.81,66.81 0 0 1 -16.4,-7.18 z M 359.62,58.21 A 71.15,71.15 0 0 1 348.2,86.28 l -0.93,-1.84 q -4.2,-13.11 -8.43,-26.23 a 1.65,1.65 0 0 0 -0.63,-0.84 6.76,6.76 0 0 0 -0.84,-3.64 2.92,2.92 0 0 0 2.18,-0.9 Q 350,42 360.09,30.86 c -0.25,9.14 -0.37,18.23 -0.47,27.35 z m -36.19,21.35 a 112.16,112.16 0 0 1 -9.05,-10.43 c -2.68,-4.48 -5.35,-8.93 -8,-13.41 a 1,1 0 0 0 -1.34,-0.47 c -0.25,-0.43 -0.5,-0.84 -0.74,-1.27 A 44.41,44.41 0 0 0 314.72,49 c 3,6.85 7,13.35 10.67,19.82 4.52,7.91 8.87,15.93 14.16,23.34 a 1.42,1.42 0 0 0 0.66,0.5 l 1.21,1.8 c -6.19,-4.7 -12.42,-9.3 -17.99,-14.9 z m -20.66,-2 c -9,-6.51 -15.9,-14.69 -23.18,-22.81 a 39.37,39.37 0 0 0 10.83,1.46 c 5.78,7.19 12.32,13.82 18.57,20.57 2.74,3 5.42,6.1 8.16,9.18 A 112.72,112.72 0 0 1 302.77,77.6 Z m -68.43,-3.68 c -1.84,0.63 -3.67,1.28 -5.48,1.93 5.2,-4.2 10.12,-8.74 15.41,-12.88 3.95,-3.08 8.12,-5.85 12.16,-8.77 a 1.2,1.2 0 0 0 0.13,0.21 1.27,1.27 0 0 0 0.15,0.56 51.63,51.63 0 0 0 3.29,5.46 c -8.58,4.45 -17.1,8.96 -25.66,13.53 z m -27,10.86 c -4.89,3.15 -9.87,6.2 -14.85,9.18 -2.49,1.5 -5,3 -7.5,4.42 -1.68,1 -3.36,1.93 -5,2.93 -0.59,0.28 -1,0.5 -1.4,0.71 1.12,-2.92 2.21,-5.88 3.27,-8.83 a 296.78,296.78 0 0 0 44.81,-21.32 c -6.46,4.43 -12.87,8.75 -19.37,12.95 z M 610.41,202 c -2.12,-5 -4.42,-10 -6.94,-14.79 a 1.06,1.06 0 0 0 0,-0.31 c -1.74,-8.55 -7.62,-16.27 -12,-23.77 -5,-8.5 -9.83,-17.08 -15.25,-25.3 a 3.75,3.75 0 0 0 -5.76,-0.75 141.66,141.66 0 0 0 -11.1,9.49 q -17.79,-12 -35,-25 c -23,-17.4 -42.7,-38.16 -64.48,-56.86 a 3.36,3.36 0 0 0 -5.2,0.69 c -2.8,4.07 -5.57,8.15 -8.24,12.32 C 436.39,66.3 426,55.22 416.42,43.4 405.49,29.92 396.72,15 386.23,1.23 A 1.79,1.79 0 0 0 383.59,1.11 0.4,0.4 0 0 0 383.24,0.89 2.31,2.31 0 0 0 379.7,0.77 c -9.5,9.39 -19.11,18.7 -28.14,28.59 -4.51,5 -8.93,10 -13.38,15 -2.83,3.17 -11.51,0.37 -17.17,-1.56 0.18,-2.48 -2.52,-5 -5.08,-3.32 a 55.57,55.57 0 0 1 -12.35,6.09 C 290.26,45.73 277,49.18 265.77,39.69 a 1.47,1.47 0 0 0 -2.12,-1.18 c -20.63,10.8 -40.85,22.41 -61,34 -9.9,5.67 -20,11.08 -29.59,17.21 -1.87,1.18 -3.74,2.46 -5.58,3.86 a 1,1 0 0 0 -0.28,0.22 l -0.06,0.06 a 37.21,37.21 0 0 0 -9.48,10.14 0.61,0.61 0 0 0 -0.77,0.81 0.9,0.9 0 0 0 0.15,0.31 c 0,0.1 -0.09,0.19 -0.12,0.28 a 0.55,0.55 0 0 0 -0.41,0.81 v 0.1 c -0.18,0.4 -0.4,0.81 -0.56,1.21 -0.16,0.4 0.41,1 0.81,0.59 0.41,2.37 2.83,4.76 5.29,5.6 5.29,1.78 12.23,-0.62 17.68,-3.7 a 82.9,82.9 0 0 0 21.06,-12.73 c 0.88,-0.59 1.78,-1.12 2.65,-1.74 14.66,-7.31 29.47,-14.44 44,-22 6,-2 11.95,-4.11 17.86,-6.22 16.09,25 44.88,45.9 72.73,51.15 8,3.77 17.24,5.33 25.2,2.93 a 1.48,1.48 0 0 0 0.28,-2.58 2,2 0 0 0 0.75,-2.52 c -0.43,-0.88 -0.9,-1.72 -1.34,-2.59 a 41.53,41.53 0 0 0 -2.77,-5.47 c -3.2,-6.29 -6.63,-12.48 -10,-18.64 a 82.91,82.91 0 0 0 4.67,-7.44 c -1.06,6.66 4.86,11.51 10.46,14.63 10.23,5.72 22,12.66 33.39,15.68 a 1.51,1.51 0 0 0 1.9,-1.09 1.27,1.27 0 0 0 0.52,-0.65 c 3.61,-13.07 -4.73,-23.87 -12.26,-34.58 -1.58,-3.51 -3.23,-7 -5,-10.48 0.69,0.46 1.4,0.9 2.09,1.37 a 0.43,0.43 0 0 0 0.06,0.46 c 8.84,10.49 22.1,18.14 33.92,24.8 12.26,6.91 25.92,13.2 39.77,16 a 1.65,1.65 0 0 0 0.87,-0.06 c 0.9,1 1.87,2 2.8,3 6.69,10.49 15.59,19.92 24.24,28.63 10.77,10.86 22.91,21.13 36.23,28.69 11.82,6.69 25.51,9.62 38.83,6.41 a 19.27,19.27 0 0 0 3.11,-1.05 22.88,22.88 0 0 0 4.24,-2 c 6.56,7 13.22,13.91 20.29,20.35 a 134.7,134.7 0 0 0 8.27,11 2,2 0 0 0 2.84,0.47 1.42,1.42 0 0 0 1.68,0.09 c 0.09,0 0.15,0 0.25,0 0.34,0.34 0.65,0.69 1,1 a 1.36,1.36 0 0 0 0.75,0.4 l 1,1.31 c 1.34,1.74 4.3,-0.09 2.93,-1.8 a 2.35,2.35 0 0 0 -0.19,-0.25 1.85,1.85 0 0 0 1.6,-2.49 z"
         class="cls-1"
         inkscape:connector-curvature="0"
         style="fill:#ffffff" />
      <path
         id="path4779"
         d="m 464.84,172.57 -0.53,-1 -5.6,-10.49 h 2.73 l -4.17,-7.81 h 3.65 l -15.1,-28.34 -15.09,28.34 h 3.64 l -4.17,7.81 h 2.74 l -4,7.57 -1.12,-2.12 h 2 l -3,-5.6 h 2.61 L 418.6,140.61 407.73,160.9 h 2.62 l -3,5.6 h 2 l -2.64,5 -5.54,-10.43 h 2.74 l -4.17,-7.81 h 3.64 l -15.1,-28.34 -15.09,28.34 h 3.64 l -4.17,7.81 h 2.74 l -4,7.57 -1.12,-2.12 h 2 l -3,-5.6 h 2.61 L 361,140.58 350.16,160.9 h 2.62 l -3,5.6 h 2 l -4.39,8.28 h 11.42 v 4.85 a 0.63,0.63 0 0 0 0.63,0.62 H 362 a 0.62,0.62 0 0 0 0.62,-0.62 v -4.85 h 22.56 v 4.6 a 0.84,0.84 0 0 0 0.84,0.84 h 3.61 a 0.83,0.83 0 0 0 0.84,-0.84 v -4.6 h 25.86 v 4.85 a 0.62,0.62 0 0 0 0.62,0.62 h 2.59 a 0.62,0.62 0 0 0 0.62,-0.62 v -4.85 h 22.56 v 4.6 a 0.83,0.83 0 0 0 0.84,0.84 h 3.61 a 0.83,0.83 0 0 0 0.84,-0.84 v -4.6 h 17.89 z"
         class="cls-1"
         inkscape:connector-curvature="0"
         style="fill:#ffffff" />
      <path
         id="path4781"
         d="m 368.34,394.51 a 66.51,66.51 0 0 0 -8.31,-0.69 l -0.81,-0.81 a 70.9,70.9 0 0 0 8.12,0.44 c 0.44,0 0.5,-0.75 0.06,-0.78 a 70.92,70.92 0 0 0 -9.21,-0.65 l -1.9,-1.9 c 2.56,0.46 5.14,0.9 7.72,1.12 0.47,0 0.5,-0.69 0.1,-0.78 A 86.72,86.72 0 0 0 355.17,389 l -0.4,-0.41 a 43.56,43.56 0 0 0 5,0.07 0.58,0.58 0 0 0 0,-1.16 55.75,55.75 0 0 0 -6.44,-0.37 L 351.19,385 a 20.75,20.75 0 0 0 5.6,0.28 c 0.53,0 0.78,-0.87 0.16,-1 a 20.67,20.67 0 0 0 -6.47,-0.19 0.16,0.16 0 0 0 -0.13,0.06 l -0.68,-0.68 c 0.65,-0.06 1.27,-0.16 1.93,-0.28 0.43,-0.06 0.43,-0.78 0,-0.78 a 26.92,26.92 0 0 0 -2.83,0.13 l -22,-22 32.48,-32.54 a 34,34 0 0 0 1.84,3.24 c 0.34,0.78 0.71,1.56 1.05,2.3 a 0.81,0.81 0 0 0 1.5,0 0.31,0.31 0 0 0 0.4,-0.15 3.89,3.89 0 0 0 0.22,-0.59 0.17,0.17 0 0 0 0.19,-0.13 c 0.15,-0.34 0.28,-0.71 0.43,-1.06 a 0.65,0.65 0 0 0 0.44,-0.43 16.1,16.1 0 0 0 0.59,-2.37 c 0.5,-1.52 0.9,-3.08 1.28,-4.63 a 0.37,0.37 0 0 0 -0.25,-0.44 c 0.34,-1.65 0.65,-3.3 1,-4.92 a 1,1 0 0 0 0,-0.34 c 0.1,-0.62 0.25,-1.27 0.32,-1.86 0,-0.38 -0.56,-0.63 -0.75,-0.25 a 1.69,1.69 0 0 0 -0.13,0.31 0.73,0.73 0 0 0 -0.49,-0.13 47.39,47.39 0 0 0 -10.62,2.71 37.44,37.44 0 0 0 -4,1.46 c -0.22,0.1 -0.43,0.16 -0.62,0.25 a 0.39,0.39 0 0 0 -0.19,0.19 25.35,25.35 0 0 0 -2.42,1.27 c -0.78,0.47 -0.07,1.72 0.74,1.34 0,0 0,0 0.07,0 a 0.63,0.63 0 0 0 0.62,0.59 c 0.34,0 0.71,0 1.06,0.07 a 6,6 0 0 0 2.17,0.34 c 0.84,0.18 1.65,0.34 2.49,0.53 h 0.19 L 324,357.72 292.67,326.39 h 0.9 a 13.43,13.43 0 0 0 4.6,-0.41 0.72,0.72 0 0 0 0.44,-0.46 h 0.34 c 0.9,0 1.34,-1.34 0.34,-1.65 l -0.71,-0.19 c -0.1,-0.12 -0.16,-0.25 -0.25,-0.34 a 0.6,0.6 0 0 0 -0.31,-0.53 l -0.31,-0.19 c -0.31,-0.31 -0.63,-0.65 -1,-0.93 a 0.5,0.5 0 0 0 -0.59,0 68.39,68.39 0 0 0 -14.81,-7.25 0.5,0.5 0 0 0 -0.56,0.28 0.24,0.24 0 0 0 -0.41,0.22 c 0.66,6.5 2.87,13.53 5,19.69 0.29,0.78 1.53,0.35 1.37,-0.43 0,-0.1 0,-0.16 -0.06,-0.25 a 0.56,0.56 0 0 0 0.22,0 9.85,9.85 0 0 0 1.9,-3.52 c 0.22,-0.53 0.4,-1.06 0.59,-1.59 l 31.77,31.78 -23.13,23.09 a 21.33,21.33 0 0 0 -3.95,-0.44 0.31,0.31 0 0 0 -0.13,0.59 21.09,21.09 0 0 0 3.18,0.78 l -1.37,1.25 c -1.78,-0.32 -3.55,-0.5 -5.35,-0.69 -0.44,0 -0.6,0.65 -0.16,0.75 1.46,0.34 3,0.68 4.45,1 l -0.31,0.35 a 44,44 0 0 0 -7,-0.1 0.43,0.43 0 0 0 -0.06,0.84 47.18,47.18 0 0 0 5.53,0.75 l -0.84,0.84 c -2.83,-0.28 -5.72,-0.22 -8.52,-0.22 a 0.52,0.52 0 0 0 -0.06,1 c 2.3,0.28 4.69,0.59 7.06,0.71 l -1.06,1.06 a 42,42 0 0 0 -7.65,-0.81 c -0.56,0 -0.81,0.84 -0.22,1 a 43.24,43.24 0 0 0 6.46,1.23 l -0.59,0.59 a 92.36,92.36 0 0 0 -9.84,-0.24 0.39,0.39 0 0 0 0,0.77 c 2.55,0.31 5.11,0.63 7.66,0.81 -2.34,0 -4.64,0.13 -7,0.38 -0.81,0.09 -0.9,1.3 0,1.33 2.14,0 4.26,-0.06 6.38,-0.18 l -0.56,0.56 2.64,2.64 a 53.92,53.92 0 0 0 -0.68,7.63 0.65,0.65 0 0 0 1.27,0.15 55.07,55.07 0 0 0 1.46,-9.52 l 0.56,-0.56 a 49.84,49.84 0 0 0 -0.09,5.6 0.55,0.55 0 0 0 1.09,0.06 56.62,56.62 0 0 0 0.25,-6.9 l 2.3,-2.31 a 46.68,46.68 0 0 0 -0.65,6.16 c 0,0.53 0.84,0.78 1,0.19 a 49.85,49.85 0 0 0 0.87,-7.56 l 1,-1 a 27.19,27.19 0 0 0 0.22,5.51 c 0.09,0.56 0.84,0.44 0.93,-0.06 a 30.7,30.7 0 0 0 0.16,-6.72 l 0.81,-0.81 a 22.72,22.72 0 0 0 0,5 0.55,0.55 0 0 0 1.06,0 25.25,25.25 0 0 0 0.34,-6.41 l 0.75,-0.75 c 0,0.69 0,1.37 0.06,2.06 a 0.35,0.35 0 0 0 0.69,0 c 0.06,-1 0.06,-1.93 0.06,-2.9 l 23.93,-23.93 23.46,23.47 a 37.16,37.16 0 0 0 0.75,7.43 c 0.13,0.59 1.06,0.41 1,-0.15 a 40.76,40.76 0 0 0 -0.87,-6.35 l 1.34,1.34 a 44.19,44.19 0 0 0 1.08,8.87 c 0.16,0.65 1.09,0.37 1.09,-0.22 a 41.11,41.11 0 0 0 -0.56,-7 l 1.06,1.05 a 61.37,61.37 0 0 0 1.62,10.18 c 0.19,0.68 1.21,0.37 1.18,-0.28 a 55.47,55.47 0 0 0 -1.3,-8.4 l 1.46,1.46 a 41.76,41.76 0 0 0 1.27,9.09 c 0.16,0.62 1.19,0.62 1.19,-0.07 a 38.39,38.39 0 0 0 -0.91,-7.46 l 1.56,1.55 a 82.82,82.82 0 0 0 1.49,9.59 0.56,0.56 0 0 0 1.09,-0.22 c -0.22,-2.62 -0.59,-5.23 -1.06,-7.81 l 1.12,1.12 2.81,-2.8 -2.25,-2.24 c 2.28,0.18 4.55,0.28 6.82,0.25 a 0.58,0.58 0 0 0 -0.18,-1.08 z"
         class="cls-1"
         inkscape:connector-curvature="0"
         style="fill:#ffffff" />
      <path
         id="path4783"
         d="m 345,385.45 a 31.8,31.8 0 0 0 0.19,6 c 0.06,0.4 0.68,0.31 0.68,-0.07 a 29.18,29.18 0 0 0 -0.5,-6 c 0.03,-0.21 -0.31,-0.15 -0.37,0.07 z"
         class="cls-1"
         inkscape:connector-curvature="0"
         style="fill:#ffffff" />
      <path
         id="path4785"
         d="m 314.63,330.18 c 0.21,0.41 0.77,0.19 0.87,-0.18 a 12.82,12.82 0 0 0 0,-4.58 c -0.1,-1 -0.19,-2.05 -0.31,-3.11 2.64,2.77 5.38,5.45 8.06,8.19 a 1.23,1.23 0 0 0 2,-0.69 c 0.34,-3.64 1.05,-7.5 0.74,-11.17 a 1,1 0 0 0 -1.89,-0.09 42.08,42.08 0 0 0 -1.06,8.3 c -2.8,-2.8 -5.6,-5.63 -8.5,-8.34 a 1.09,1.09 0 0 0 -1.8,0.91 c 0.28,2.05 0.59,4.1 0.87,6.16 a 11.49,11.49 0 0 0 1.02,4.6 z"
         class="cls-1"
         inkscape:connector-curvature="0"
         style="fill:#ffffff" />
      <path
         id="path4787"
         d="m 282.11,364.69 a 1,1 0 0 0 1.86,0 c 0.72,-1.93 1.41,-3.89 2.09,-5.82 1.21,2 2.46,4.05 3.7,6.07 a 1.16,1.16 0 0 0 2,-0.28 c 1,-2.89 2.37,-5.91 2.65,-8.93 0.06,-0.84 -1.15,-1.52 -1.65,-0.68 a 28.35,28.35 0 0 0 -2.46,6.35 c -1.21,-1.93 -2.39,-3.86 -3.64,-5.79 a 1.12,1.12 0 0 0 -1.9,0.28 c -0.68,2 -1.34,4 -2,6.07 a 62.3,62.3 0 0 0 -3.58,-5.67 c -0.37,-0.5 -1.09,0 -0.9,0.53 1.03,2.74 2.61,5.23 3.83,7.87 z"
         class="cls-1"
         inkscape:connector-curvature="0"
         style="fill:#ffffff" />
      <path
         id="path4789"
         d="m 361.86,352.74 a 0.91,0.91 0 0 0 0.19,-1.74 13.87,13.87 0 0 0 -4.64,-0.9 25.87,25.87 0 0 0 -5.35,-0.41 0.62,0.62 0 0 0 -0.12,1.19 c 0,0 0.09,0 0.12,0.06 a 0.57,0.57 0 0 0 -0.25,0.34 c -0.65,4.05 -0.34,8.37 -0.4,12.45 a 1.1,1.1 0 0 0 2,0.75 c 0.93,0.12 1.87,0.18 2.8,0.24 a 14.24,14.24 0 0 0 4.17,0.07 c 1.09,-0.22 0.72,-1.68 -0.12,-1.93 a 13.38,13.38 0 0 0 -3.89,-0.25 c -0.91,0 -1.81,0 -2.74,0 0,-1.37 -0.06,-2.77 -0.1,-4.14 a 4.89,4.89 0 0 0 2.21,-0.37 0.64,0.64 0 0 0 -0.09,-1.16 5,5 0 0 0 -2.15,0.1 44.75,44.75 0 0 0 -0.59,-5.85 c 1.18,0.37 2.4,0.59 3.58,0.84 1.73,0.31 3.6,0.97 5.37,0.71 z"
         class="cls-1"
         inkscape:connector-curvature="0"
         style="fill:#ffffff" />
      <path
         id="path4791"
         d="m 325.3,389.68 a 28.94,28.94 0 0 1 -3.45,-1.8 c -2.49,-1.75 0.62,-4 2.64,-3.86 a 17.67,17.67 0 0 1 2.55,0.5 c 0.47,0.09 0.56,-0.56 0.19,-0.75 -2,-1 -3.92,-1.53 -6.1,-0.75 a 3.56,3.56 0 0 0 -2.05,4.3 c 0.49,1.86 2.61,2.89 4.23,3.61 1.34,0.59 4.17,1.71 3.05,3.76 -1.31,2.37 -4.89,0.19 -6.57,-0.31 a 0.73,0.73 0 0 0 -0.68,1.28 6.9,6.9 0 0 0 6.53,1.83 3.88,3.88 0 0 0 2.9,-3.61 c -0.13,-1.99 -1.54,-3.33 -3.24,-4.2 z"
         class="cls-1"
         inkscape:connector-curvature="0"
         style="fill:#ffffff" />
      <rect
         id="rect4793"
         height="3.1400001"
         width="185.16"
         y="359.81"
         x="41.060001"
         class="cls-1"
         style="fill:#ffffff" />
      <rect
         id="rect4795"
         height="3.1400001"
         width="185.16"
         y="359.81"
         x="419.75"
         class="cls-1"
         style="fill:#ffffff" />
    </g>
  </g>
</svg>
