<svg id="Layer_1" data-name="Layer 1" xmlns="http://www.w3.org/2000/svg" viewBox="0 0 615 409"><defs><style>.cls-1{fill:#165767;}</style></defs><title>Artboard 1</title><path class="cls-1" d="M72.21,220.74c1.5-.25,2.43.31,2.68,1.62l13.35,77c.22,1.3-.41,2.14-1.84,2.39-3.36.59-6.75,1.19-10.11,1.81A1.93,1.93,0,0,1,73.74,302q-4.2-22.74-8.44-45.5c-.25.07-.53.1-.77.16q-1.37,23.89-2.28,47.77a2.26,2.26,0,0,1-2,2.27c-1.77.34-3.55.68-5.32,1.06a2.25,2.25,0,0,1-2.74-1.34q-10-21.7-20.35-43.26a5.4,5.4,0,0,1-.78.16q4.82,22.64,9.59,45.28A1.92,1.92,0,0,1,38.88,311c-3.33.71-6.63,1.43-10,2.17-1.41.31-2.34-.21-2.62-1.52q-8.53-38.15-17-76.27c-.28-1.31.34-2.18,1.83-2.52q7.57-1.68,15.19-3.27a2.45,2.45,0,0,1,2.93,1.28Q40.82,254.64,52,278.53q1.17-26.32,2.83-52.72a2.42,2.42,0,0,1,2.21-2.3C62,222.55,67.14,221.64,72.21,220.74Z"/><path class="cls-1" d="M144.84,279.52c2.87-.37,4.27-1.9,3.92-4.63q-2.94-23.58-5.85-47.15c-.34-2.64-2.11-3.89-5.1-3.51-2.24.28-4.45.56-6.69.87-3,.4-4.42,2.05-4.05,4.7q3.23,23.52,6.41,47.08c.38,2.74,2.12,3.86,5,3.48Zm-33.39-50.1c-1.43-9.55,3.64-15.53,14.57-17,4.32-.59,8.68-1.15,13-1.68,11-1.37,17.37,3.11,18.43,12.73q2.94,26.13,5.91,52.31c1.09,9.61-3.83,15.31-14.1,16.58-4.08.5-8.15,1.06-12.26,1.59-10.27,1.4-16.46-2.86-17.89-12.42Q115.29,255.47,111.45,229.42Z"/><path class="cls-1" d="M235.12,202a2.26,2.26,0,0,1,2.46,1.93q1.77,32.67,3.51,65.32c.5,9.64-4.73,15.06-15,15.74-4.11.28-8.21.56-12.29.87-10.3.78-16.24-3.82-17.11-13.47L191,207.27a2.2,2.2,0,0,1,2.15-2.24c3.73-.31,7.47-.63,11.2-.91A2.23,2.23,0,0,1,206.8,206q2.38,31.19,4.73,62.36c.22,2.77,1.87,4,4.76,3.77l5.76-.41c2.89-.18,4.35-1.62,4.17-4.38q-2-31.18-4.05-62.4a2.25,2.25,0,0,1,2.21-2.21C227.93,202.44,231.54,202.23,235.12,202Z"/><path class="cls-1" d="M320.6,199.92c1.18,0,1.87.62,1.87,1.65q-.29,39.5-.59,79a1.56,1.56,0,0,1-1.78,1.62c-3.64,0-7.25,0-10.89,0a1.9,1.9,0,0,1-2-1.34q-8.49-21.94-17.58-43.75h-.56q.38,21.8.74,43.59c0,1-.52,1.65-1.74,1.68-3.83.07-7.62.16-11.45.25a1.56,1.56,0,0,1-1.8-1.58q-1.12-39.5-2.24-79c0-1,.65-1.68,1.83-1.71l11.58-.28a1.94,1.94,0,0,1,2.11,1.3q9.24,21.71,18,43.51h.68l-.18-43.41c0-1,.59-1.65,1.86-1.65C312.48,199.89,316.52,199.89,320.6,199.92Z"/><path class="cls-1" d="M400.11,202.69c1.28.1,1.84.75,1.77,1.78q-.31,5.13-.65,10.27c-.06,1-.68,1.61-2,1.52-4.48-.28-9-.56-13.41-.78q-1.78,33.47-3.58,67c-.06,1.12-.65,1.62-1.84,1.55L369,283.44c-1.09-.06-1.74-.59-1.68-1.71q1.4-33.51,2.83-67-6.72-.28-13.44-.5a1.64,1.64,0,0,1-1.81-1.71c.1-3.43.22-6.85.32-10.27,0-1,.74-1.62,1.92-1.59Q378.57,201.33,400.11,202.69Z"/><path class="cls-1" d="M450.68,224.91c-3.67,11.67-7.25,23.31-10.8,35,4.79.47,9.55.93,14.35,1.46C453.1,249.21,451.92,237.08,450.68,224.91Zm8.06,65.51a1.67,1.67,0,0,1-1.59-1.62c-.47-5.11-1-10.18-1.43-15.28-6.6-.72-13.16-1.4-19.76-2-1.46,4.88-2.93,9.77-4.36,14.68a1.67,1.67,0,0,1-1.9,1.28c-3.92-.34-7.84-.68-11.73-1-1.21-.09-1.71-.74-1.27-1.86q12.27-38.7,25.67-77.15a1.79,1.79,0,0,1,2.12-1.24c5.41.53,10.79,1.06,16.21,1.65a1.77,1.77,0,0,1,1.83,1.65q5.37,40.38,9.65,80.72c.09,1.15-.43,1.71-1.74,1.56C466.49,291.32,462.63,290.88,458.74,290.42Z"/><path class="cls-1" d="M529.53,217a1.63,1.63,0,0,1,1.59,1.93q-6.25,39-12.48,78a1.55,1.55,0,0,1-2,1.34q-5.65-.9-11.36-1.75c-1.21-.18-1.65-.87-1.49-1.89q5.79-39.08,11.57-78.14c.16-1,.81-1.56,2.09-1.34Z"/><path class="cls-1" d="M613.46,233a1.65,1.65,0,0,1,1.49,2q-8.62,38.56-17.24,77.08a1.56,1.56,0,0,1-2.08,1.22L584.92,311a2,2,0,0,1-1.68-1.71q-3.74-23.25-8.06-46.49a4,4,0,0,1-.56-.12q-4.25,21.38-8.46,42.78a1.54,1.54,0,0,1-2,1.28c-3.77-.75-7.53-1.46-11.3-2.18a1.57,1.57,0,0,1-1.43-1.93q7.23-38.83,14.44-77.67a1.63,1.63,0,0,1,2.14-1.28c3.8.72,7.63,1.44,11.42,2.18a2,2,0,0,1,1.81,1.71q4.53,23.16,8.46,46.34c.22.06.44.09.66.15q4.49-21.22,9-42.47c.22-1,.9-1.5,2.18-1.22C605.49,231.23,609.48,232.07,613.46,233Z"/><path class="cls-1" d="M74.7,183.15q0,7.75,7.75,7.75,10.41,0,25.14-15.06,13.3-13.46,20.32-27.39c4.67-9.3,7-16.4,7-21.25a11.66,11.66,0,0,0-.25-2.3c-1.71,0-3.43-.91-5.2-2.68v.12a3.81,3.81,0,0,1-1.74-2.83,2.86,2.86,0,0,1,1.15-2.36,4.68,4.68,0,0,1,3-.94,2.7,2.7,0,0,1,2.61,1.47,11.34,11.34,0,0,0,1.9,2.61c.78.78,1.12,1.31,1,1.62a2.44,2.44,0,0,0,2.14,1.06,5.76,5.76,0,0,0,3.3-1.4,5.53,5.53,0,0,1,3-1.4c.75,0,1.09.21,1.09.68,0,.84-.75,1.65-2.21,2.43a5.11,5.11,0,0,1-2.77,1.06h-3.7a28.08,28.08,0,0,1,1.4,6.84q0,9.28-8.87,24.09A101.61,101.61,0,0,1,108,181.56q-14,11.82-25.43,11.83T71.15,182.28q0-8.82,7.41-25.15l8.34-18.2-11.36,8.81c-3.55,2.92-7.16,6.16-10.83,9.67s-10,10.77-19.17,21.73L32.1,195.6c-2.15,2.46-4.11,3.7-5.79,3.7-1.31,0-2-.84-2-2.55a15.33,15.33,0,0,1,2.09-6.6l22.37-32.21q20.27-29.77,20.26-37.77c0-2.93-2.71-4.42-8.12-4.42q-9.86,0-27.45,12a68.42,68.42,0,0,0-16.68,16.27C12,150.6,9.63,156,9.63,160.28s2.86,6.44,8.56,6.44q8,0,16.46-7.41c2-1.71,3.18-2.55,3.49-2.55s.43.28.34.81q-1.26,4.4-9.43,8.4c-5.45,2.68-10.24,4-14.41,4a12,12,0,0,1-2.21-.13h-.06q-9.28-2-9.27-9.15t8-17.27a85,85,0,0,1,36.38-26.54c7.66-2.93,13.94-4.39,18.89-4.39q9.15,0,9.15,6Q75.51,131,44,172.85q-10.56,14-10.65,14c.22,0,4.27-4.35,12.11-13.1a275.25,275.25,0,0,1,22.31-22.37q4.06-3.6,14-13.2A83.51,83.51,0,0,1,93,129.38a8.23,8.23,0,0,1,4.36-.94c1.89,0,3.17.53,3.89,1.62a152.06,152.06,0,0,0-18.58,29.6C77.35,170.61,74.7,178.42,74.7,183.15Z"/><path class="cls-1" d="M161.27,140.11a3.23,3.23,0,0,1,1.56,2.62,3.29,3.29,0,0,1-1.46,2.61,5,5,0,0,1-3.18,1.09,4.74,4.74,0,0,1-3.17-1.28,3.71,3.71,0,0,1-1.43-2.89c0-2.15,1.46-3.24,4.38-3.24A5.28,5.28,0,0,1,161.27,140.11ZM137,187.54c-3.95,0-5.91-2.55-5.91-7.66q0-6.25,6.85-17.33t11-11.17a5,5,0,0,1,2.62.93c1,.62,1.43,1.25,1.43,1.87-.38.53-.84,1.15-1.4,1.8l-1.75,2.15c-.62.78-1.46,1.87-2.55,3.3s-2.11,2.8-3.11,4.11c-5.79,7.5-8.68,12.63-8.68,15.46s1,4.23,2.89,4.23c1.62,0,3.83-.9,6.6-2.67a58.46,58.46,0,0,0,15.4-13.2c1.4-1.77,2.34-2.67,2.83-2.67s.75.31.75.93-.9,1.87-2.67,3.71-3.18,3.32-4.24,4.38-1.77,1.81-2.14,2.15l-2.15,2a25.07,25.07,0,0,1-2.37,2c-.52.38-1.3,1-2.33,1.75a13.87,13.87,0,0,1-2.68,1.68l-2.67,1.21A13.8,13.8,0,0,1,137,187.54Z"/><path class="cls-1" d="M163.54,180.47c0,2.31,1.28,3.49,3.83,3.49s5.82-1.34,9.84-4.05a55.65,55.65,0,0,0,11.7-11c.93-1.25,1.65-1.87,2.21-1.87s.81.22.81.68-1.59,2.46-4.77,6q-11.57,12.75-19.35,12.73a11.1,11.1,0,0,1-6.47-1.81,6.1,6.1,0,0,1-2.65-5.53,24.31,24.31,0,0,1,2-8.75,153.22,153.22,0,0,1,10.77-19.82c9-14.69,15.43-22,19.23-22a3.94,3.94,0,0,1,2.36.87,2.88,2.88,0,0,1,1.34,1.9c-1.77,2.39-5.19,7-10.24,13.78s-8.55,11.67-10.48,14.66-3.39,5.2-4.36,6.66-1.68,2.61-2.15,3.42-1,1.87-1.61,3.18A16.86,16.86,0,0,0,163.54,180.47Z"/><path class="cls-1" d="M191.12,180.13c0,2.77,1,4.17,2.89,4.17q5,0,16.56-13.66,2.1-2.43,13.91-18.17a2.92,2.92,0,0,0-2.77-1.4c-4.8,0-11.08,3.64-18.89,11S191.12,175.34,191.12,180.13Zm34.16-29c8.66-14.07,14.66-21.1,18.08-21.1a7.73,7.73,0,0,1,2.28.53c1,.34,1.43.87,1.43,1.56a2.92,2.92,0,0,1-.59,1.49c-6.2,7.56-10.77,13.26-13.79,17-9.12,11.52-14.13,19.76-15.06,24.8a16.44,16.44,0,0,0-.34,3.24q0,5.24,4.29,5.23c5.73,0,13.16-5.29,22.38-15.87a4.52,4.52,0,0,1,2-1.34c.53-.13.81,0,.81.4a2.56,2.56,0,0,1-.69,1.4q-13.44,16.11-23.87,18a10.33,10.33,0,0,1-1.62.12,6.2,6.2,0,0,1-5.38-2.49,9.08,9.08,0,0,1-1.8-5.38,24,24,0,0,1,1.27-7.19l-9.4,9.4c-4.26,3.95-7.59,5.91-10,5.91a9.3,9.3,0,0,1-6.06-2,7.26,7.26,0,0,1-2.9-6.13q0-8.44,11.83-20.22t21.66-11.77c2.14,0,3.67.59,4.51,1.75A8.27,8.27,0,0,1,225.28,151.16Z"/><path class="cls-1" d="M522.25,157.38c-.78-.46-1.52-.93-2.3-1.43-3.58-3.39-7.28-6.69-11.05-9.8a1.27,1.27,0,0,0,.25-2c-1.84-1.9-3.73-3.7-5.66-5.48-.78-1.71-1.59-3.42-2.37-5.16-.19-.41-.37-.84-.56-1.25,11,10.33,22.16,20.73,33.76,30.34A73.86,73.86,0,0,1,522.25,157.38ZM472,105c-8.37-7-16.61-14.47-25.45-20.94a3.29,3.29,0,0,0,1.74-1.74c2.86-3,5.63-6.1,8.37-9.22,4.67,7.53,10,14.72,15,22,4.17,6,8.16,12.89,12.76,19,.28.59.59,1.18.87,1.74C480.86,112.14,476.29,108.59,472,105ZM389.93,63.72c-3.39-3-6.9-5.88-10.42-8.75q-2.89-10-6.07-20c-1.06-5.11-2.24-10.18-3.64-15.16,3.7-4.2,7.41-8.37,11.05-12.63a.76.76,0,0,0-.13.4c1.09,12.48,6.13,24.93,11.08,36.32,3.92,9,8.59,18.73,14.53,27A66.81,66.81,0,0,1,389.93,63.72Zm-30.31-5.51A71.15,71.15,0,0,1,348.2,86.28l-.93-1.84q-4.2-13.11-8.43-26.23a1.65,1.65,0,0,0-.63-.84,6.76,6.76,0,0,0-.84-3.64,2.92,2.92,0,0,0,2.18-.9Q350,42,360.09,30.86C359.84,40,359.72,49.09,359.62,58.21ZM323.43,79.56a112.16,112.16,0,0,1-9.05-10.43c-2.68-4.48-5.35-8.93-8-13.41a1,1,0,0,0-1.34-.47c-.25-.43-.5-.84-.74-1.27A44.41,44.41,0,0,0,314.72,49c3,6.85,7,13.35,10.67,19.82,4.52,7.91,8.87,15.93,14.16,23.34a1.42,1.42,0,0,0,.66.5l1.21,1.8C335.23,89.76,329,85.16,323.43,79.56Zm-20.66-2c-9-6.51-15.9-14.69-23.18-22.81a39.37,39.37,0,0,0,10.83,1.46c5.78,7.19,12.32,13.82,18.57,20.57,2.74,3,5.42,6.1,8.16,9.18A112.72,112.72,0,0,1,302.77,77.6Zm-68.43-3.68c-1.84.63-3.67,1.28-5.48,1.93,5.2-4.2,10.12-8.74,15.41-12.88,3.95-3.08,8.12-5.85,12.16-8.77a1.2,1.2,0,0,0,.13.21,1.27,1.27,0,0,0,.15.56A51.63,51.63,0,0,0,260,60.39C251.42,64.84,242.9,69.35,234.34,73.92Zm-27,10.86c-4.89,3.15-9.87,6.2-14.85,9.18-2.49,1.5-5,3-7.5,4.42-1.68,1-3.36,1.93-5,2.93-.59.28-1,.5-1.4.71,1.12-2.92,2.21-5.88,3.27-8.83a296.78,296.78,0,0,0,44.81-21.32C220.21,76.26,213.8,80.58,207.3,84.78ZM610.41,202c-2.12-5-4.42-10-6.94-14.79a1.06,1.06,0,0,0,0-.31c-1.74-8.55-7.62-16.27-12-23.77-5-8.5-9.83-17.08-15.25-25.3a3.75,3.75,0,0,0-5.76-.75,141.66,141.66,0,0,0-11.1,9.49q-17.79-12-35-25c-23-17.4-42.7-38.16-64.48-56.86a3.36,3.36,0,0,0-5.2.69c-2.8,4.07-5.57,8.15-8.24,12.32C436.39,66.3,426,55.22,416.42,43.4,405.49,29.92,396.72,15,386.23,1.23a1.79,1.79,0,0,0-2.64-.12.4.4,0,0,0-.35-.22A2.31,2.31,0,0,0,379.7.77c-9.5,9.39-19.11,18.7-28.14,28.59-4.51,5-8.93,10-13.38,15-2.83,3.17-11.51.37-17.17-1.56.18-2.48-2.52-5-5.08-3.32a55.57,55.57,0,0,1-12.35,6.09c-13.32.16-26.58,3.61-37.81-5.88a1.47,1.47,0,0,0-2.12-1.18c-20.63,10.8-40.85,22.41-61,34-9.9,5.67-20,11.08-29.59,17.21-1.87,1.18-3.74,2.46-5.58,3.86a1,1,0,0,0-.28.22l-.06.06A37.21,37.21,0,0,0,157.66,104a.61.61,0,0,0-.77.81.9.9,0,0,0,.15.31c0,.1-.09.19-.12.28a.55.55,0,0,0-.41.81v.1c-.18.4-.4.81-.56,1.21s.41,1,.81.59c.41,2.37,2.83,4.76,5.29,5.6,5.29,1.78,12.23-.62,17.68-3.7a82.9,82.9,0,0,0,21.06-12.73c.88-.59,1.78-1.12,2.65-1.74,14.66-7.31,29.47-14.44,44-22,6-2,11.95-4.11,17.86-6.22,16.09,25,44.88,45.9,72.73,51.15,8,3.77,17.24,5.33,25.2,2.93a1.48,1.48,0,0,0,.28-2.58,2,2,0,0,0,.75-2.52c-.43-.88-.9-1.72-1.34-2.59a41.53,41.53,0,0,0-2.77-5.47c-3.2-6.29-6.63-12.48-10-18.64a82.91,82.91,0,0,0,4.67-7.44c-1.06,6.66,4.86,11.51,10.46,14.63,10.23,5.72,22,12.66,33.39,15.68a1.51,1.51,0,0,0,1.9-1.09,1.27,1.27,0,0,0,.52-.65c3.61-13.07-4.73-23.87-12.26-34.58-1.58-3.51-3.23-7-5-10.48.69.46,1.4.9,2.09,1.37a.43.43,0,0,0,.06.46c8.84,10.49,22.1,18.14,33.92,24.8,12.26,6.91,25.92,13.2,39.77,16a1.65,1.65,0,0,0,.87-.06c.9,1,1.87,2,2.8,3,6.69,10.49,15.59,19.92,24.24,28.63,10.77,10.86,22.91,21.13,36.23,28.69,11.82,6.69,25.51,9.62,38.83,6.41a19.27,19.27,0,0,0,3.11-1.05,22.88,22.88,0,0,0,4.24-2c6.56,7,13.22,13.91,20.29,20.35a134.7,134.7,0,0,0,8.27,11,2,2,0,0,0,2.84.47,1.42,1.42,0,0,0,1.68.09c.09,0,.15,0,.25,0,.34.34.65.69,1,1a1.36,1.36,0,0,0,.75.4l1,1.31c1.34,1.74,4.3-.09,2.93-1.8a2.35,2.35,0,0,0-.19-.25A1.85,1.85,0,0,0,610.41,202Z"/><path class="cls-1" d="M464.84,172.57l-.53-1-5.6-10.49h2.73l-4.17-7.81h3.65l-15.1-28.34-15.09,28.34h3.64l-4.17,7.81h2.74l-4,7.57-1.12-2.12h2l-3-5.6h2.61l-10.83-20.32L407.73,160.9h2.62l-3,5.6h2l-2.64,5-5.54-10.43h2.74l-4.17-7.81h3.64l-15.1-28.34-15.09,28.34h3.64l-4.17,7.81h2.74l-4,7.57-1.12-2.12h2l-3-5.6h2.61L361,140.58,350.16,160.9h2.62l-3,5.6h2l-4.39,8.28h11.42v4.85a.63.63,0,0,0,.63.62H362a.62.62,0,0,0,.62-.62v-4.85h22.56v4.6a.84.84,0,0,0,.84.84h3.61a.83.83,0,0,0,.84-.84v-4.6h25.86v4.85a.62.62,0,0,0,.62.62h2.59a.62.62,0,0,0,.62-.62v-4.85h22.56v4.6a.83.83,0,0,0,.84.84h3.61a.83.83,0,0,0,.84-.84v-4.6h17.89Z"/><path class="cls-1" d="M368.34,394.51a66.51,66.51,0,0,0-8.31-.69l-.81-.81a70.9,70.9,0,0,0,8.12.44c.44,0,.5-.75.06-.78a70.92,70.92,0,0,0-9.21-.65l-1.9-1.9c2.56.46,5.14.9,7.72,1.12.47,0,.5-.69.1-.78a86.72,86.72,0,0,0-8.94-1.46l-.4-.41a43.56,43.56,0,0,0,5,.07.58.58,0,0,0,0-1.16,55.75,55.75,0,0,0-6.44-.37L351.19,385a20.75,20.75,0,0,0,5.6.28c.53,0,.78-.87.16-1a20.67,20.67,0,0,0-6.47-.19.16.16,0,0,0-.13.06l-.68-.68c.65-.06,1.27-.16,1.93-.28.43-.06.43-.78,0-.78a26.92,26.92,0,0,0-2.83.13l-22-22L359.25,328a34,34,0,0,0,1.84,3.24c.34.78.71,1.56,1.05,2.3a.81.81,0,0,0,1.5,0,.31.31,0,0,0,.4-.15,3.89,3.89,0,0,0,.22-.59.17.17,0,0,0,.19-.13c.15-.34.28-.71.43-1.06a.65.65,0,0,0,.44-.43,16.1,16.1,0,0,0,.59-2.37c.5-1.52.9-3.08,1.28-4.63a.37.37,0,0,0-.25-.44c.34-1.65.65-3.3,1-4.92a1,1,0,0,0,0-.34c.1-.62.25-1.27.32-1.86,0-.38-.56-.63-.75-.25a1.69,1.69,0,0,0-.13.31.73.73,0,0,0-.49-.13,47.39,47.39,0,0,0-10.62,2.71,37.44,37.44,0,0,0-4,1.46c-.22.1-.43.16-.62.25a.39.39,0,0,0-.19.19,25.35,25.35,0,0,0-2.42,1.27c-.78.47-.07,1.72.74,1.34,0,0,0,0,.07,0a.63.63,0,0,0,.62.59c.34,0,.71,0,1.06.07a6,6,0,0,0,2.17.34c.84.18,1.65.34,2.49.53h.19L324,357.72l-31.33-31.33h.9a13.43,13.43,0,0,0,4.6-.41.72.72,0,0,0,.44-.46h.34c.9,0,1.34-1.34.34-1.65l-.71-.19c-.1-.12-.16-.25-.25-.34a.6.6,0,0,0-.31-.53l-.31-.19c-.31-.31-.63-.65-1-.93a.5.5,0,0,0-.59,0,68.39,68.39,0,0,0-14.81-7.25.5.5,0,0,0-.56.28.24.24,0,0,0-.41.22c.66,6.5,2.87,13.53,5,19.69.29.78,1.53.35,1.37-.43,0-.1,0-.16-.06-.25a.56.56,0,0,0,.22,0,9.85,9.85,0,0,0,1.9-3.52c.22-.53.4-1.06.59-1.59l31.77,31.78L298,383.71a21.33,21.33,0,0,0-3.95-.44.31.31,0,0,0-.13.59,21.09,21.09,0,0,0,3.18.78l-1.37,1.25c-1.78-.32-3.55-.5-5.35-.69-.44,0-.6.65-.16.75,1.46.34,3,.68,4.45,1l-.31.35a44,44,0,0,0-7-.1.43.43,0,0,0-.06.84,47.18,47.18,0,0,0,5.53.75l-.84.84c-2.83-.28-5.72-.22-8.52-.22a.52.52,0,0,0-.06,1c2.3.28,4.69.59,7.06.71l-1.06,1.06a42,42,0,0,0-7.65-.81c-.56,0-.81.84-.22,1A43.24,43.24,0,0,0,288,393.6l-.59.59a92.36,92.36,0,0,0-9.84-.24.39.39,0,0,0,0,.77c2.55.31,5.11.63,7.66.81-2.34,0-4.64.13-7,.38-.81.09-.9,1.3,0,1.33,2.14,0,4.26-.06,6.38-.18l-.56.56,2.64,2.64a53.92,53.92,0,0,0-.68,7.63.65.65,0,0,0,1.27.15,55.07,55.07,0,0,0,1.46-9.52l.56-.56a49.84,49.84,0,0,0-.09,5.6.55.55,0,0,0,1.09.06,56.62,56.62,0,0,0,.25-6.9l2.3-2.31a46.68,46.68,0,0,0-.65,6.16c0,.53.84.78,1,.19a49.85,49.85,0,0,0,.87-7.56l1-1a27.19,27.19,0,0,0,.22,5.51c.09.56.84.44.93-.06a30.7,30.7,0,0,0,.16-6.72l.81-.81a22.72,22.72,0,0,0,0,5,.55.55,0,0,0,1.06,0,25.25,25.25,0,0,0,.34-6.41l.75-.75c0,.69,0,1.37.06,2.06a.35.35,0,0,0,.69,0c.06-1,.06-1.93.06-2.9l23.93-23.93,23.46,23.47a37.16,37.16,0,0,0,.75,7.43c.13.59,1.06.41,1-.15a40.76,40.76,0,0,0-.87-6.35l1.34,1.34a44.19,44.19,0,0,0,1.08,8.87c.16.65,1.09.37,1.09-.22a41.11,41.11,0,0,0-.56-7l1.06,1.05a61.37,61.37,0,0,0,1.62,10.18c.19.68,1.21.37,1.18-.28a55.47,55.47,0,0,0-1.3-8.4l1.46,1.46a41.76,41.76,0,0,0,1.27,9.09c.16.62,1.19.62,1.19-.07a38.39,38.39,0,0,0-.91-7.46l1.56,1.55a82.82,82.82,0,0,0,1.49,9.59.56.56,0,0,0,1.09-.22c-.22-2.62-.59-5.23-1.06-7.81l1.12,1.12,2.81-2.8-2.25-2.24c2.28.18,4.55.28,6.82.25A.58.58,0,0,0,368.34,394.51Z"/><path class="cls-1" d="M345,385.45a31.8,31.8,0,0,0,.19,6c.06.4.68.31.68-.07a29.18,29.18,0,0,0-.5-6C345.4,385.17,345.06,385.23,345,385.45Z"/><path class="cls-1" d="M314.63,330.18c.21.41.77.19.87-.18a12.82,12.82,0,0,0,0-4.58c-.1-1-.19-2.05-.31-3.11,2.64,2.77,5.38,5.45,8.06,8.19a1.23,1.23,0,0,0,2-.69c.34-3.64,1.05-7.5.74-11.17a1,1,0,0,0-1.89-.09,42.08,42.08,0,0,0-1.06,8.3c-2.8-2.8-5.6-5.63-8.5-8.34a1.09,1.09,0,0,0-1.8.91c.28,2.05.59,4.1.87,6.16A11.49,11.49,0,0,0,314.63,330.18Z"/><path class="cls-1" d="M282.11,364.69a1,1,0,0,0,1.86,0c.72-1.93,1.41-3.89,2.09-5.82,1.21,2,2.46,4.05,3.7,6.07a1.16,1.16,0,0,0,2-.28c1-2.89,2.37-5.91,2.65-8.93.06-.84-1.15-1.52-1.65-.68a28.35,28.35,0,0,0-2.46,6.35c-1.21-1.93-2.39-3.86-3.64-5.79a1.12,1.12,0,0,0-1.9.28c-.68,2-1.34,4-2,6.07a62.3,62.3,0,0,0-3.58-5.67c-.37-.5-1.09,0-.9.53C279.31,359.56,280.89,362.05,282.11,364.69Z"/><path class="cls-1" d="M361.86,352.74a.91.91,0,0,0,.19-1.74,13.87,13.87,0,0,0-4.64-.9,25.87,25.87,0,0,0-5.35-.41.62.62,0,0,0-.12,1.19s.09,0,.12.06a.57.57,0,0,0-.25.34c-.65,4.05-.34,8.37-.4,12.45a1.1,1.1,0,0,0,2,.75c.93.12,1.87.18,2.8.24a14.24,14.24,0,0,0,4.17.07c1.09-.22.72-1.68-.12-1.93a13.38,13.38,0,0,0-3.89-.25c-.91,0-1.81,0-2.74,0,0-1.37-.06-2.77-.1-4.14a4.89,4.89,0,0,0,2.21-.37.64.64,0,0,0-.09-1.16,5,5,0,0,0-2.15.1,44.75,44.75,0,0,0-.59-5.85c1.18.37,2.4.59,3.58.84C358.22,352.34,360.09,353,361.86,352.74Z"/><path class="cls-1" d="M325.3,389.68a28.94,28.94,0,0,1-3.45-1.8c-2.49-1.75.62-4,2.64-3.86a17.67,17.67,0,0,1,2.55.5c.47.09.56-.56.19-.75-2-1-3.92-1.53-6.1-.75a3.56,3.56,0,0,0-2.05,4.3c.49,1.86,2.61,2.89,4.23,3.61,1.34.59,4.17,1.71,3.05,3.76-1.31,2.37-4.89.19-6.57-.31a.73.73,0,0,0-.68,1.28,6.9,6.9,0,0,0,6.53,1.83,3.88,3.88,0,0,0,2.9-3.61C328.41,391.89,327,390.55,325.3,389.68Z"/><rect class="cls-1" x="41.06" y="359.81" width="185.16" height="3.14"/><rect class="cls-1" x="419.75" y="359.81" width="185.16" height="3.14"/></svg>